<?xml version="1.0" encoding="utf-8"?>
<!-- Generator: Adobe Illustrator 16.0.0, SVG Export Plug-In . SVG Version: 6.00 Build 0)  -->
<!DOCTYPE svg PUBLIC "-//W3C//DTD SVG 1.1//EN" "http://www.w3.org/Graphics/SVG/1.1/DTD/svg11.dtd">
<svg version="1.1" id="Layer_1" xmlns="http://www.w3.org/2000/svg" xmlns:xlink="http://www.w3.org/1999/xlink" x="0px" y="0px"
	 width="91.406px" height="91.41px" viewBox="114.062 44.062 91.406 91.41" enable-background="new 114.062 44.062 91.406 91.41"
	 xml:space="preserve">
<rect x="126" y="67.5" stroke="#FFFFFF" stroke-miterlimit="10" width="62.75" height="46"/>
<g id="circle-arrow-left_2_">
	<path fill="#FFFFFF" d="M159.764,44.062c-25.237,0-45.701,20.46-45.701,45.705s20.464,45.705,45.701,45.705
		c25.241,0,45.705-20.46,45.705-45.705S185.005,44.062,159.764,44.062z M182.5,95.625c0,1.031-0.844,1.875-1.875,1.875H160v12.776
		c0,1.031-0.649,1.339-1.44,0.675l-23.993-19.984c-0.795-0.659-0.795-1.743,0-2.403L158.56,68.58c0.791-0.664,1.44-0.36,1.44,0.675
		V82.5h20.625c1.031,0,1.875,0.844,1.875,1.875V95.625z"/>
</g>
</svg>
